<?xml version="1.0" encoding="UTF-8"?><svg xmlns="http://www.w3.org/2000/svg" viewBox="0 0 1920 701.582"><defs><style>.c,.d,.e{fill:none;}.f{fill:#f7f7f7;}.g{fill:#ffaf00;}.h{fill:#dc0096;}.i{fill:#970a82;}.d{stroke:#000;}.d,.e{stroke-miterlimit:10;stroke-width:2px;}.e{stroke:#f0ab00;}</style></defs><g id="a"><rect class="f" y="-189.209" width="1920" height="1080"/></g><g id="b"><path class="g" d="M1069.559,315.715c-39.937,0-72.312,8.785-72.312,19.622h0v22.916c0,10.837,32.375,19.622,72.312,19.622s72.312-8.785,72.312-19.622v-22.916c0-10.837-32.375-19.622-72.312-19.622Z"/><path class="i" d="M1387.456,352.884c-65.521,0-118.637,14.413-118.637,32.192h0v37.596c0,17.779,53.115,32.192,118.637,32.192s118.637-14.413,118.637-32.192v-37.596c0-17.779-53.116-32.192-118.637-32.192Z"/><path class="h" d="M1387.456,293.442c-65.521,0-118.637,14.413-118.637,32.192h0v37.596c0,17.779,53.115,32.192,118.637,32.192s118.637-14.413,118.637-32.192v-37.596c0-17.779-53.116-32.192-118.637-32.192Z"/><path class="g" d="M1387.456,234c-65.521,0-118.637,14.413-118.637,32.192h0v37.596c0,17.779,53.115,32.192,118.637,32.192s118.637-14.413,118.637-32.192v-37.596c0-17.779-53.116-32.192-118.637-32.192Z"/><path class="g" d="M218.117,186.396c-27.684,0-50.127,6.09-50.127,13.602v49.628c0,7.512,22.443,13.602,50.127,13.602s50.127-6.09,50.127-13.602v-49.628c0-7.512-22.443-13.602-50.127-13.602Z"/><path class="h" d="M218.117,275.104c-27.684,0-50.127,6.09-50.127,13.602v49.628c0,7.512,22.443,13.602,50.127,13.602s50.127-6.09,50.127-13.602v-49.628c0-7.512-22.443-13.602-50.127-13.602Z"/><path class="i" d="M218.117,363.812c-27.684,0-50.127,6.09-50.127,13.602v49.628c0,7.512,22.443,13.602,50.127,13.602s50.127-6.09,50.127-13.602v-49.628c0-7.512-22.443-13.602-50.127-13.602Z"/><g><path d="M145.815,560.66v-17.025h4.302c2.785,0,4.891,.707,6.317,2.121,1.426,1.414,2.139,3.527,2.139,6.341,0,2.832-.72,4.967-2.161,6.406-1.441,1.438-3.54,2.157-6.295,2.157h-4.302Zm1.629-1.494h2.92c2.104,0,3.727-.56,4.868-1.68s1.713-2.917,1.713-5.39c0-2.405-.574-4.168-1.724-5.288s-2.783-1.68-4.902-1.68h-2.875v14.037Z"/><path d="M160.808,557.822c0-.598,.139-1.153,.415-1.665,.277-.512,.738-.983,1.382-1.413s1.488-.812,2.532-1.149c1.045-.336,2.338-.62,3.881-.853v-.622c0-.844-.21-1.472-.628-1.883-.419-.411-1.028-.616-1.828-.616-.965,0-1.799,.181-2.502,.543-.703,.361-1.376,.821-2.02,1.38l-.859-.996c.734-.669,1.539-1.21,2.415-1.622,.876-.413,1.914-.619,3.111-.619,1.365,0,2.355,.341,2.971,1.021,.615,.681,.923,1.627,.923,2.839v5.499c0,.736,.026,1.342,.079,1.818,.052,.477,.138,.869,.258,1.177h-1.638c-.075-.264-.142-.529-.198-.796-.057-.268-.084-.582-.084-.943-.703,.646-1.445,1.133-2.226,1.456-.781,.323-1.632,.485-2.551,.485-1.089,0-1.933-.269-2.533-.805-.601-.537-.9-1.282-.9-2.235Zm1.583-.202c0,.643,.194,1.125,.583,1.446s.928,.482,1.615,.482c.859,0,1.655-.169,2.388-.505s1.413-.804,2.041-1.401v-3.766c-1.301,.217-2.376,.458-3.224,.723-.849,.266-1.525,.555-2.029,.869-.505,.313-.859,.65-1.065,1.009-.205,.358-.309,.739-.309,1.143Z"/><path d="M172.836,549.901v-1.358h2.122v-4.347h1.583v4.347h3.145v1.358h-3.145v7.612c0,.645,.132,1.137,.394,1.479,.262,.341,.768,.512,1.517,.512h.679c.221,0,.418-.026,.59-.079v1.258c-.188,.03-.427,.06-.719,.09s-.576,.045-.854,.045c-1.16,0-1.982-.234-2.465-.702-.483-.468-.725-1.229-.725-2.285v-7.929h-2.122Z"/><path d="M181.697,557.822c0-.598,.139-1.153,.415-1.665,.277-.512,.738-.983,1.382-1.413s1.488-.812,2.532-1.149c1.045-.336,2.338-.62,3.881-.853v-.622c0-.844-.21-1.472-.628-1.883-.419-.411-1.028-.616-1.828-.616-.965,0-1.799,.181-2.502,.543-.703,.361-1.376,.821-2.02,1.38l-.859-.996c.734-.669,1.539-1.21,2.415-1.622,.876-.413,1.914-.619,3.111-.619,1.365,0,2.355,.341,2.971,1.021,.615,.681,.923,1.627,.923,2.839v5.499c0,.736,.026,1.342,.079,1.818,.052,.477,.138,.869,.258,1.177h-1.638c-.075-.264-.142-.529-.198-.796-.057-.268-.084-.582-.084-.943-.703,.646-1.445,1.133-2.226,1.456-.781,.323-1.632,.485-2.551,.485-1.089,0-1.933-.269-2.533-.805-.601-.537-.9-1.282-.9-2.235Zm1.583-.202c0,.643,.194,1.125,.583,1.446s.928,.482,1.615,.482c.859,0,1.655-.169,2.388-.505s1.413-.804,2.041-1.401v-3.766c-1.301,.217-2.376,.458-3.224,.723-.849,.266-1.525,.555-2.029,.869-.505,.313-.859,.65-1.065,1.009-.205,.358-.309,.739-.309,1.143Z"/><path d="M199.709,556.475l1.472-.526c.379,1.195,.982,2.093,1.811,2.69,.828,.599,1.836,.897,3.024,.897,1.289,0,2.314-.272,3.075-.818s1.142-1.301,1.142-2.266c0-.44-.062-.833-.186-1.177s-.354-.662-.691-.953c-.338-.292-.795-.572-1.372-.841-.577-.27-1.319-.55-2.227-.842-.915-.291-1.717-.577-2.406-.857s-1.263-.609-1.722-.987c-.458-.377-.801-.811-1.028-1.3-.228-.49-.341-1.086-.341-1.789,0-.616,.131-1.189,.392-1.72s.623-.992,1.086-1.387,1.017-.707,1.662-.937c.646-.229,1.356-.344,2.133-.344,.794,0,1.51,.096,2.146,.288,.638,.191,1.194,.461,1.67,.807s.885,.762,1.226,1.247,.608,1.014,.804,1.585l-1.382,.64c-.428-1.1-1.014-1.886-1.76-2.36s-1.655-.712-2.727-.712c-.57,0-1.082,.072-1.535,.218-.454,.146-.838,.341-1.153,.583-.314,.243-.557,.537-.725,.881-.169,.344-.253,.71-.253,1.099,0,.471,.076,.875,.229,1.211,.154,.337,.416,.644,.788,.92,.371,.276,.854,.534,1.45,.773s1.348,.501,2.255,.785c.893,.276,1.668,.568,2.327,.874,.659,.307,1.208,.656,1.646,1.049s.768,.841,.989,1.346c.221,.505,.332,1.101,.332,1.789,0,.703-.15,1.342-.45,1.918s-.71,1.062-1.231,1.458c-.521,.396-1.146,.707-1.877,.932-.73,.224-1.516,.337-2.354,.337-1.605,0-2.948-.402-4.027-1.206-1.078-.805-1.815-1.906-2.212-3.305Z"/><path d="M214.22,554.607c0-1.012,.146-1.908,.438-2.69s.687-1.441,1.184-1.977,1.081-.941,1.75-1.218c.67-.277,1.378-.416,2.126-.416,.734,0,1.436,.139,2.103,.416,.667,.276,1.25,.683,1.748,1.218s.894,1.194,1.186,1.977c.293,.782,.438,1.679,.438,2.69,0,1.018-.146,1.916-.438,2.695-.292,.778-.688,1.438-1.186,1.977s-1.081,.946-1.748,1.224-1.368,.415-2.103,.415-1.435-.138-2.104-.415-1.257-.685-1.762-1.224-.902-1.198-1.194-1.977c-.292-.779-.438-1.678-.438-2.695Zm1.583-.023c0,.674,.081,1.311,.242,1.91,.161,.599,.407,1.124,.736,1.577,.33,.453,.741,.814,1.231,1.084,.491,.27,1.06,.404,1.704,.404,.615,0,1.16-.124,1.637-.37,.476-.248,.883-.59,1.22-1.028,.338-.438,.595-.958,.771-1.561,.177-.603,.265-1.274,.265-2.017,0-.658-.084-1.285-.253-1.881-.169-.595-.414-1.115-.736-1.561-.323-.445-.726-.803-1.209-1.072-.484-.27-1.049-.404-1.693-.404-.614,0-1.164,.123-1.647,.37s-.895,.588-1.231,1.022c-.338,.434-.594,.954-.771,1.561-.176,.606-.265,1.262-.265,1.965Z"/><path d="M228.079,557.302v-8.76h1.583v8.479c0,.861,.191,1.499,.573,1.915,.382,.415,.996,.623,1.842,.623,.778,0,1.503-.192,2.173-.578s1.35-.9,2.039-1.544v-8.895h1.583v12.117h-1.583v-1.909c-.584,.584-1.26,1.091-2.027,1.521s-1.627,.646-2.578,.646c-1.213,0-2.116-.317-2.712-.954-.595-.637-.893-1.523-.893-2.661Z"/><path d="M241.555,560.66v-12.117h1.584v2.411h.045c.479-.762,1.102-1.394,1.869-1.895,.768-.502,1.746-.753,2.938-.753h.28l-.157,1.494h-.236c-.06,0-.111-.004-.156-.012s-.075-.012-.09-.012c-1.004,0-1.884,.262-2.64,.785s-1.374,1.267-1.853,2.23v7.867h-1.584Z"/><path d="M249.282,554.607c0-1.086,.152-2.023,.457-2.813s.709-1.445,1.213-1.966,1.083-.904,1.738-1.15c.655-.248,1.319-.371,1.993-.371,.645,0,1.215,.088,1.713,.264s.931,.418,1.297,.725c.367,.307,.686,.661,.955,1.062s.494,.821,.674,1.263l-1.348,.596c-.345-.823-.773-1.454-1.286-1.893-.513-.438-1.196-.656-2.05-.656-.449,0-.899,.084-1.353,.252-.453,.169-.859,.449-1.219,.843-.359,.393-.649,.902-.87,1.527s-.332,1.391-.332,2.296c0,.802,.096,1.509,.287,2.123,.19,.614,.451,1.131,.78,1.55s.721,.741,1.174,.966,.945,.337,1.477,.337c.846,0,1.529-.204,2.05-.612s.997-1.064,1.432-1.971l1.28,.551c-.239,.509-.509,.975-.809,1.397s-.646,.78-1.039,1.073c-.393,.291-.835,.518-1.325,.679s-1.042,.241-1.656,.241c-.688,0-1.352-.138-1.988-.415-.636-.277-1.194-.685-1.676-1.224s-.863-1.198-1.146-1.977c-.282-.779-.424-1.678-.424-2.695Z"/><path d="M261.287,554.584c0-1.07,.157-2,.472-2.79s.727-1.441,1.235-1.954,1.076-.896,1.701-1.151,1.26-.382,1.903-.382c.712,0,1.369,.135,1.972,.404s1.123,.668,1.561,1.196c.438,.527,.784,1.187,1.039,1.977s.382,1.697,.382,2.724v.303h-8.682c0,.752,.104,1.418,.31,1.997,.206,.58,.48,1.068,.825,1.468,.345,.398,.747,.703,1.207,.914,.461,.21,.953,.315,1.477,.315,.906,0,1.646-.189,2.219-.569,.572-.38,1.091-.932,1.555-1.653l.988,.789c-.539,.85-1.195,1.52-1.971,2.011-.774,.491-1.738,.736-2.892,.736-.704,0-1.378-.135-2.021-.404s-1.207-.674-1.688-1.213c-.481-.539-.867-1.197-1.157-1.977-.29-.778-.435-1.691-.435-2.74Zm1.606-.943h7.108c-.053-.564-.155-1.093-.309-1.586s-.371-.923-.651-1.288c-.281-.365-.629-.647-1.045-.847-.415-.199-.893-.299-1.432-.299-.441,0-.865,.081-1.27,.242-.404,.162-.772,.408-1.105,.74-.333,.331-.614,.747-.843,1.248-.229,.5-.38,1.097-.454,1.789Z"/><path d="M273.461,558.739l1.011-.922c.464,.539,.998,.967,1.601,1.281s1.327,.472,2.173,.472c1.041,0,1.827-.182,2.358-.546s.797-.892,.797-1.582c0-.66-.262-1.16-.785-1.498-.524-.338-1.374-.646-2.55-.923-.672-.21-1.278-.398-1.818-.566s-.985-.387-1.337-.656c-.353-.27-.616-.587-.792-.954-.176-.366-.265-.819-.265-1.357,0-.428,.092-.834,.275-1.22s.451-.725,.803-1.017c.353-.292,.781-.522,1.286-.691,.506-.169,1.088-.253,1.747-.253,1.048,0,1.924,.157,2.627,.472,.704,.314,1.326,.742,1.865,1.281l-.898,1.057c-.457-.457-.978-.821-1.562-1.091s-1.243-.404-1.977-.404c-.479,0-.884,.05-1.213,.148-.329,.1-.597,.232-.803,.398s-.359,.354-.461,.564c-.101,.21-.151,.43-.151,.658,0,.575,.228,1.013,.684,1.312,.455,.299,1.214,.569,2.275,.812,.744,.228,1.405,.429,1.985,.605,.579,.177,1.063,.415,1.452,.714,.389,.3,.678,.652,.867,1.059,.188,.407,.283,.917,.283,1.53,0,.554-.12,1.044-.359,1.474s-.565,.794-.977,1.092c-.412,.299-.906,.523-1.482,.673-.577,.148-1.21,.224-1.898,.224-1.086,0-2.034-.201-2.847-.604s-1.451-.916-1.915-1.542Z"/></g><g><path d="M467.62,560.66v-17.025h10.164v1.494h-8.535v5.783h6.367v1.494h-6.367v6.76h9.018v1.494h-10.646Z"/><path d="M479.581,560.66l4.357-6.277-4.054-5.84h1.774l3.145,4.66,3.156-4.66h1.729l-4.076,5.84,4.346,6.277h-1.752l-3.47-5.088-3.448,5.088h-1.707Z"/><path d="M491.182,549.901v-1.358h2.122v-4.347h1.583v4.347h3.145v1.358h-3.145v7.612c0,.645,.132,1.137,.394,1.479,.262,.341,.768,.512,1.517,.512h.679c.221,0,.418-.026,.59-.079v1.258c-.188,.03-.427,.06-.719,.09s-.576,.045-.854,.045c-1.16,0-1.982-.234-2.465-.702-.483-.468-.725-1.229-.725-2.285v-7.929h-2.122Z"/><path d="M500.874,560.66v-12.117h1.584v2.411h.045c.479-.762,1.102-1.394,1.869-1.895,.768-.502,1.746-.753,2.938-.753h.28l-.157,1.494h-.236c-.06,0-.111-.004-.156-.012s-.075-.012-.09-.012c-1.004,0-1.884,.262-2.64,.785s-1.374,1.267-1.853,2.23v7.867h-1.584Z"/><path d="M508.791,557.822c0-.598,.139-1.153,.415-1.665,.277-.512,.738-.983,1.382-1.413s1.488-.812,2.532-1.149c1.045-.336,2.338-.62,3.881-.853v-.622c0-.844-.21-1.472-.628-1.883-.419-.411-1.028-.616-1.828-.616-.965,0-1.799,.181-2.502,.543-.703,.361-1.376,.821-2.02,1.38l-.859-.996c.734-.669,1.539-1.21,2.415-1.622,.876-.413,1.914-.619,3.111-.619,1.365,0,2.355,.341,2.971,1.021,.615,.681,.923,1.627,.923,2.839v5.499c0,.736,.026,1.342,.079,1.818,.052,.477,.138,.869,.258,1.177h-1.638c-.075-.264-.142-.529-.198-.796-.057-.268-.084-.582-.084-.943-.703,.646-1.445,1.133-2.226,1.456-.781,.323-1.632,.485-2.551,.485-1.089,0-1.933-.269-2.533-.805-.601-.537-.9-1.282-.9-2.235Zm1.583-.202c0,.643,.194,1.125,.583,1.446s.928,.482,1.615,.482c.859,0,1.655-.169,2.388-.505s1.413-.804,2.041-1.401v-3.766c-1.301,.217-2.376,.458-3.224,.723-.849,.266-1.525,.555-2.029,.869-.505,.313-.859,.65-1.065,1.009-.205,.358-.309,.739-.309,1.143Z"/><path d="M521.414,554.607c0-1.086,.152-2.023,.457-2.813s.709-1.445,1.213-1.966,1.083-.904,1.738-1.15c.655-.248,1.319-.371,1.993-.371,.645,0,1.215,.088,1.713,.264s.931,.418,1.297,.725c.367,.307,.686,.661,.955,1.062s.494,.821,.674,1.263l-1.348,.596c-.345-.823-.773-1.454-1.286-1.893-.513-.438-1.196-.656-2.05-.656-.449,0-.899,.084-1.353,.252-.453,.169-.859,.449-1.219,.843-.359,.393-.649,.902-.87,1.527s-.332,1.391-.332,2.296c0,.802,.096,1.509,.287,2.123,.19,.614,.451,1.131,.78,1.55s.721,.741,1.174,.966,.945,.337,1.477,.337c.846,0,1.529-.204,2.05-.612s.997-1.064,1.432-1.971l1.28,.551c-.239,.509-.509,.975-.809,1.397s-.646,.78-1.039,1.073c-.393,.291-.835,.518-1.325,.679s-1.042,.241-1.656,.241c-.688,0-1.352-.138-1.988-.415-.636-.277-1.194-.685-1.676-1.224s-.863-1.198-1.146-1.977c-.282-.779-.424-1.678-.424-2.695Z"/><path d="M533.027,549.901v-1.358h2.122v-4.347h1.583v4.347h3.145v1.358h-3.145v7.612c0,.645,.132,1.137,.394,1.479,.262,.341,.768,.512,1.517,.512h.679c.221,0,.418-.026,.59-.079v1.258c-.188,.03-.427,.06-.719,.09s-.576,.045-.854,.045c-1.16,0-1.982-.234-2.465-.702-.483-.468-.725-1.229-.725-2.285v-7.929h-2.122Z"/></g><g><path d="M736.558,545.128v-1.494h12.634v1.494h-5.503v15.531h-1.629v-15.531h-5.502Z"/><path d="M748.698,560.66v-12.117h1.584v2.411h.045c.479-.762,1.102-1.394,1.869-1.895,.768-.502,1.746-.753,2.938-.753h.28l-.157,1.494h-.236c-.06,0-.111-.004-.156-.012s-.075-.012-.09-.012c-1.004,0-1.884,.262-2.64,.785s-1.374,1.267-1.853,2.23v7.867h-1.584Z"/><path d="M756.616,557.822c0-.598,.139-1.153,.415-1.665,.277-.512,.738-.983,1.382-1.413s1.488-.812,2.532-1.149c1.045-.336,2.338-.62,3.881-.853v-.622c0-.844-.21-1.472-.628-1.883-.419-.411-1.028-.616-1.828-.616-.965,0-1.799,.181-2.502,.543-.703,.361-1.376,.821-2.02,1.38l-.859-.996c.734-.669,1.539-1.21,2.415-1.622,.876-.413,1.914-.619,3.111-.619,1.365,0,2.355,.341,2.971,1.021,.615,.681,.923,1.627,.923,2.839v5.499c0,.736,.026,1.342,.079,1.818,.052,.477,.138,.869,.258,1.177h-1.638c-.075-.264-.142-.529-.198-.796-.057-.268-.084-.582-.084-.943-.703,.646-1.445,1.133-2.226,1.456-.781,.323-1.632,.485-2.551,.485-1.089,0-1.933-.269-2.533-.805-.601-.537-.9-1.282-.9-2.235Zm1.583-.202c0,.643,.194,1.125,.583,1.446s.928,.482,1.615,.482c.859,0,1.655-.169,2.388-.505s1.413-.804,2.041-1.401v-3.766c-1.301,.217-2.376,.458-3.224,.723-.849,.266-1.525,.555-2.029,.869-.505,.313-.859,.65-1.065,1.009-.205,.358-.309,.739-.309,1.143Z"/><path d="M769.935,560.66v-12.117h1.584v1.908c.584-.584,1.259-1.087,2.026-1.51s1.634-.635,2.601-.635c1.197,0,2.098,.314,2.7,.943s.904,1.513,.904,2.65v8.76h-1.583v-8.468c0-.854-.195-1.488-.584-1.903-.39-.416-1-.623-1.831-.623-.778,0-1.507,.187-2.185,.561-.678,.375-1.36,.892-2.049,1.551v8.883h-1.584Z"/><path d="M782.445,558.739l1.011-.922c.464,.539,.998,.967,1.601,1.281s1.327,.472,2.173,.472c1.041,0,1.827-.182,2.358-.546s.797-.892,.797-1.582c0-.66-.262-1.16-.785-1.498-.524-.338-1.374-.646-2.55-.923-.672-.21-1.278-.398-1.818-.566s-.985-.387-1.337-.656c-.353-.27-.616-.587-.792-.954-.176-.366-.265-.819-.265-1.357,0-.428,.092-.834,.275-1.22s.451-.725,.803-1.017c.353-.292,.781-.522,1.286-.691,.506-.169,1.088-.253,1.747-.253,1.048,0,1.924,.157,2.627,.472,.704,.314,1.326,.742,1.865,1.281l-.898,1.057c-.457-.457-.978-.821-1.562-1.091s-1.243-.404-1.977-.404c-.479,0-.884,.05-1.213,.148-.329,.1-.597,.232-.803,.398s-.359,.354-.461,.564c-.101,.21-.151,.43-.151,.658,0,.575,.228,1.013,.684,1.312,.455,.299,1.214,.569,2.275,.812,.744,.228,1.405,.429,1.985,.605,.579,.177,1.063,.415,1.452,.714,.389,.3,.678,.652,.867,1.059,.188,.407,.283,.917,.283,1.53,0,.554-.12,1.044-.359,1.474s-.565,.794-.977,1.092c-.412,.299-.906,.523-1.482,.673-.577,.148-1.21,.224-1.898,.224-1.086,0-2.034-.201-2.847-.604s-1.451-.916-1.915-1.542Z"/><path d="M793.484,549.901v-1.358h2.123v-1.82c0-2.073,1.156-3.11,3.471-3.11,.149,0,.314,.004,.494,.011,.18,.008,.321,.022,.426,.045v1.303c-.09-.015-.215-.025-.376-.033s-.305-.012-.433-.012c-.584,0-1.062,.129-1.438,.385-.374,.256-.561,.716-.561,1.379v1.854h2.672v1.358h-2.672v10.759h-1.584v-10.759h-2.123Z"/><path d="M801.155,554.607c0-1.012,.146-1.908,.438-2.69s.687-1.441,1.184-1.977,1.081-.941,1.75-1.218c.67-.277,1.378-.416,2.126-.416,.734,0,1.436,.139,2.103,.416,.667,.276,1.25,.683,1.748,1.218s.894,1.194,1.186,1.977c.293,.782,.438,1.679,.438,2.69,0,1.018-.146,1.916-.438,2.695-.292,.778-.688,1.438-1.186,1.977s-1.081,.946-1.748,1.224-1.368,.415-2.103,.415-1.435-.138-2.104-.415-1.257-.685-1.762-1.224-.902-1.198-1.194-1.977c-.292-.779-.438-1.678-.438-2.695Zm1.583-.023c0,.674,.081,1.311,.242,1.91,.161,.599,.407,1.124,.736,1.577,.33,.453,.741,.814,1.231,1.084,.491,.27,1.06,.404,1.704,.404,.615,0,1.16-.124,1.637-.37,.476-.248,.883-.59,1.22-1.028,.338-.438,.595-.958,.771-1.561,.177-.603,.265-1.274,.265-2.017,0-.658-.084-1.285-.253-1.881-.169-.595-.414-1.115-.736-1.561-.323-.445-.726-.803-1.209-1.072-.484-.27-1.049-.404-1.693-.404-.614,0-1.164,.123-1.647,.37s-.895,.588-1.231,1.022c-.338,.434-.594,.954-.771,1.561-.176,.606-.265,1.262-.265,1.965Z"/><path d="M815.126,560.66v-12.117h1.584v2.411h.045c.479-.762,1.102-1.394,1.869-1.895,.768-.502,1.746-.753,2.938-.753h.28l-.157,1.494h-.236c-.06,0-.111-.004-.156-.012s-.075-.012-.09-.012c-1.004,0-1.884,.262-2.64,.785s-1.374,1.267-1.853,2.23v7.867h-1.584Z"/><path d="M824.211,560.66v-12.117h1.584v1.908c.613-.599,1.278-1.105,1.993-1.521,.715-.415,1.529-.623,2.442-.623,1.03,0,1.797,.204,2.301,.612s.846,.934,1.024,1.577c.645-.599,1.344-1.113,2.098-1.544s1.584-.646,2.491-.646c1.244,0,2.138,.322,2.681,.966,.544,.644,.815,1.52,.815,2.628v8.76h-1.584v-8.468c0-.854-.165-1.488-.494-1.903-.33-.416-.927-.623-1.789-.623-.735,0-1.422,.187-2.059,.561-.638,.375-1.302,.892-1.992,1.551v8.883h-1.583v-8.468c0-.854-.165-1.488-.494-1.903-.329-.416-.929-.623-1.797-.623-.741,0-1.43,.187-2.066,.561-.637,.375-1.299,.892-1.987,1.551v8.883h-1.584Z"/></g><g><path d="M1041.769,560.66v-17.025h1.629v15.531h8.322v1.494h-9.951Z"/><path d="M1052.899,554.607c0-1.012,.146-1.908,.438-2.69s.687-1.441,1.184-1.977,1.081-.941,1.75-1.218c.67-.277,1.378-.416,2.126-.416,.734,0,1.436,.139,2.103,.416,.667,.276,1.25,.683,1.748,1.218s.894,1.194,1.186,1.977c.293,.782,.438,1.679,.438,2.69,0,1.018-.146,1.916-.438,2.695-.292,.778-.688,1.438-1.186,1.977s-1.081,.946-1.748,1.224-1.368,.415-2.103,.415-1.435-.138-2.104-.415-1.257-.685-1.762-1.224-.902-1.198-1.194-1.977c-.292-.779-.438-1.678-.438-2.695Zm1.583-.023c0,.674,.081,1.311,.242,1.91,.161,.599,.407,1.124,.736,1.577,.33,.453,.741,.814,1.231,1.084,.491,.27,1.06,.404,1.704,.404,.615,0,1.16-.124,1.637-.37,.476-.248,.883-.59,1.22-1.028,.338-.438,.595-.958,.771-1.561,.177-.603,.265-1.274,.265-2.017,0-.658-.084-1.285-.253-1.881-.169-.595-.414-1.115-.736-1.561-.323-.445-.726-.803-1.209-1.072-.484-.27-1.049-.404-1.693-.404-.614,0-1.164,.123-1.647,.37s-.895,.588-1.231,1.022c-.338,.434-.594,.954-.771,1.561-.176,.606-.265,1.262-.265,1.965Z"/><path d="M1065.904,557.822c0-.598,.139-1.153,.415-1.665,.277-.512,.738-.983,1.382-1.413s1.488-.812,2.532-1.149c1.045-.336,2.338-.62,3.881-.853v-.622c0-.844-.21-1.472-.628-1.883-.419-.411-1.028-.616-1.828-.616-.965,0-1.799,.181-2.502,.543-.703,.361-1.376,.821-2.02,1.38l-.859-.996c.734-.669,1.539-1.21,2.415-1.622,.876-.413,1.914-.619,3.111-.619,1.365,0,2.355,.341,2.971,1.021,.615,.681,.923,1.627,.923,2.839v5.499c0,.736,.026,1.342,.079,1.818,.052,.477,.138,.869,.258,1.177h-1.638c-.075-.264-.142-.529-.198-.796-.057-.268-.084-.582-.084-.943-.703,.646-1.445,1.133-2.226,1.456-.781,.323-1.632,.485-2.551,.485-1.089,0-1.933-.269-2.533-.805-.601-.537-.9-1.282-.9-2.235Zm1.583-.202c0,.643,.194,1.125,.583,1.446s.928,.482,1.615,.482c.859,0,1.655-.169,2.388-.505s1.413-.804,2.041-1.401v-3.766c-1.301,.217-2.376,.458-3.224,.723-.849,.266-1.525,.555-2.029,.869-.505,.313-.859,.65-1.065,1.009-.205,.358-.309,.739-.309,1.143Z"/><path d="M1078.549,554.589c0-1.053,.131-1.973,.393-2.761s.622-1.441,1.082-1.96,1.004-.909,1.633-1.171c.628-.261,1.301-.392,2.019-.392,.787,0,1.519,.178,2.193,.533,.675,.354,1.249,.799,1.722,1.332v-6.537h1.583v14.038c0,.733,.026,1.338,.079,1.813,.052,.476,.146,.867,.28,1.174h-1.664c-.074-.219-.14-.49-.195-.813-.056-.324-.083-.648-.083-.973-.488,.542-1.058,1.009-1.71,1.4s-1.433,.588-2.34,.588c-.688,0-1.339-.126-1.951-.377-.613-.252-1.143-.639-1.588-1.16-.444-.521-.798-1.175-1.06-1.959-.262-.785-.393-1.71-.393-2.776Zm1.584,.022c0,.832,.095,1.556,.286,2.17,.191,.615,.456,1.125,.793,1.529,.338,.405,.729,.705,1.176,.899,.445,.195,.92,.293,1.423,.293,.757,0,1.43-.179,2.019-.534,.589-.356,1.175-.842,1.761-1.456v-5.892c-.601-.645-1.202-1.14-1.806-1.484s-1.262-.517-1.974-.517c-.532,0-1.025,.099-1.479,.298-.454,.198-.842,.502-1.164,.91-.322,.409-.575,.928-.759,1.558-.185,.629-.275,1.371-.275,2.226Z"/></g><g><path d="M1299.543,560.66v-17.025h4.302c2.785,0,4.891,.707,6.317,2.121,1.426,1.414,2.139,3.527,2.139,6.341,0,2.832-.72,4.967-2.161,6.406-1.441,1.438-3.54,2.157-6.295,2.157h-4.302Zm1.629-1.494h2.92c2.104,0,3.727-.56,4.868-1.68s1.713-2.917,1.713-5.39c0-2.405-.574-4.168-1.724-5.288s-2.783-1.68-4.902-1.68h-2.875v14.037Z"/><path d="M1314.537,557.822c0-.598,.139-1.153,.415-1.665,.277-.512,.738-.983,1.382-1.413s1.488-.812,2.532-1.149c1.045-.336,2.338-.62,3.881-.853v-.622c0-.844-.21-1.472-.628-1.883-.419-.411-1.028-.616-1.828-.616-.965,0-1.799,.181-2.502,.543-.703,.361-1.376,.821-2.02,1.38l-.859-.996c.734-.669,1.539-1.21,2.415-1.622,.876-.413,1.914-.619,3.111-.619,1.365,0,2.355,.341,2.971,1.021,.615,.681,.923,1.627,.923,2.839v5.499c0,.736,.026,1.342,.079,1.818,.052,.477,.138,.869,.258,1.177h-1.638c-.075-.264-.142-.529-.198-.796-.057-.268-.084-.582-.084-.943-.703,.646-1.445,1.133-2.226,1.456-.781,.323-1.632,.485-2.551,.485-1.089,0-1.933-.269-2.533-.805-.601-.537-.9-1.282-.9-2.235Zm1.583-.202c0,.643,.194,1.125,.583,1.446s.928,.482,1.615,.482c.859,0,1.655-.169,2.388-.505s1.413-.804,2.041-1.401v-3.766c-1.301,.217-2.376,.458-3.224,.723-.849,.266-1.525,.555-2.029,.869-.505,.313-.859,.65-1.065,1.009-.205,.358-.309,.739-.309,1.143Z"/><path d="M1326.565,549.901v-1.358h2.122v-4.347h1.583v4.347h3.145v1.358h-3.145v7.612c0,.645,.132,1.137,.394,1.479,.262,.341,.768,.512,1.517,.512h.679c.221,0,.418-.026,.59-.079v1.258c-.188,.03-.427,.06-.719,.09s-.576,.045-.854,.045c-1.16,0-1.982-.234-2.465-.702-.483-.468-.725-1.229-.725-2.285v-7.929h-2.122Z"/><path d="M1335.425,557.822c0-.598,.139-1.153,.415-1.665,.277-.512,.738-.983,1.382-1.413s1.488-.812,2.532-1.149c1.045-.336,2.338-.62,3.881-.853v-.622c0-.844-.21-1.472-.628-1.883-.419-.411-1.028-.616-1.828-.616-.965,0-1.799,.181-2.502,.543-.703,.361-1.376,.821-2.02,1.38l-.859-.996c.734-.669,1.539-1.21,2.415-1.622,.876-.413,1.914-.619,3.111-.619,1.365,0,2.355,.341,2.971,1.021,.615,.681,.923,1.627,.923,2.839v5.499c0,.736,.026,1.342,.079,1.818,.052,.477,.138,.869,.258,1.177h-1.638c-.075-.264-.142-.529-.198-.796-.057-.268-.084-.582-.084-.943-.703,.646-1.445,1.133-2.226,1.456-.781,.323-1.632,.485-2.551,.485-1.089,0-1.933-.269-2.533-.805-.601-.537-.9-1.282-.9-2.235Zm1.583-.202c0,.643,.194,1.125,.583,1.446s.928,.482,1.615,.482c.859,0,1.655-.169,2.388-.505s1.413-.804,2.041-1.401v-3.766c-1.301,.217-2.376,.458-3.224,.723-.849,.266-1.525,.555-2.029,.869-.505,.313-.859,.65-1.065,1.009-.205,.358-.309,.739-.309,1.143Z"/><path d="M1352.338,543.634h1.662l2.613,10.348c.198,.784,.391,1.547,.578,2.287,.187,.741,.353,1.398,.498,1.972h.045c.128-.584,.276-1.242,.446-1.976s.353-1.493,.548-2.279l2.544-10.352h1.74l2.53,10.441c.191,.793,.369,1.526,.532,2.198,.163,.673,.321,1.326,.475,1.959h.055c.148-.688,.301-1.351,.46-1.986s.331-1.339,.516-2.109l2.626-10.503h1.583l-4.523,17.025h-1.541l-3.624-14.767h-.045l-3.649,14.767h-1.55l-4.519-17.025Z"/><path d="M1372.643,557.822c0-.598,.139-1.153,.415-1.665,.277-.512,.738-.983,1.382-1.413s1.488-.812,2.532-1.149c1.045-.336,2.338-.62,3.881-.853v-.622c0-.844-.21-1.472-.628-1.883-.419-.411-1.028-.616-1.828-.616-.965,0-1.799,.181-2.502,.543-.703,.361-1.376,.821-2.02,1.38l-.859-.996c.734-.669,1.539-1.21,2.415-1.622,.876-.413,1.914-.619,3.111-.619,1.365,0,2.355,.341,2.971,1.021,.615,.681,.923,1.627,.923,2.839v5.499c0,.736,.026,1.342,.079,1.818,.052,.477,.138,.869,.258,1.177h-1.638c-.075-.264-.142-.529-.198-.796-.057-.268-.084-.582-.084-.943-.703,.646-1.445,1.133-2.226,1.456-.781,.323-1.632,.485-2.551,.485-1.089,0-1.933-.269-2.533-.805-.601-.537-.9-1.282-.9-2.235Zm1.583-.202c0,.643,.194,1.125,.583,1.446s.928,.482,1.615,.482c.859,0,1.655-.169,2.388-.505s1.413-.804,2.041-1.401v-3.766c-1.301,.217-2.376,.458-3.224,.723-.849,.266-1.525,.555-2.029,.869-.505,.313-.859,.65-1.065,1.009-.205,.358-.309,.739-.309,1.143Z"/><path d="M1385.962,560.66v-12.117h1.584v2.411h.045c.479-.762,1.102-1.394,1.869-1.895,.768-.502,1.746-.753,2.938-.753h.28l-.157,1.494h-.236c-.06,0-.111-.004-.156-.012s-.075-.012-.09-.012c-1.004,0-1.884,.262-2.64,.785s-1.374,1.267-1.853,2.23v7.867h-1.584Z"/><path d="M1393.689,554.584c0-1.07,.157-2,.472-2.79s.727-1.441,1.235-1.954,1.076-.896,1.701-1.151,1.26-.382,1.903-.382c.712,0,1.369,.135,1.972,.404s1.123,.668,1.561,1.196c.438,.527,.784,1.187,1.039,1.977s.382,1.697,.382,2.724v.303h-8.682c0,.752,.104,1.418,.31,1.997,.206,.58,.48,1.068,.825,1.468,.345,.398,.747,.703,1.207,.914,.461,.21,.953,.315,1.477,.315,.906,0,1.646-.189,2.219-.569,.572-.38,1.091-.932,1.555-1.653l.988,.789c-.539,.85-1.195,1.52-1.971,2.011-.774,.491-1.738,.736-2.892,.736-.704,0-1.378-.135-2.021-.404s-1.207-.674-1.688-1.213c-.481-.539-.867-1.197-1.157-1.977-.29-.778-.435-1.691-.435-2.74Zm1.606-.943h7.108c-.053-.564-.155-1.093-.309-1.586s-.371-.923-.651-1.288c-.281-.365-.629-.647-1.045-.847-.415-.199-.893-.299-1.432-.299-.441,0-.865,.081-1.27,.242-.404,.162-.772,.408-1.105,.74-.333,.331-.614,.747-.843,1.248-.229,.5-.38,1.097-.454,1.789Z"/><path d="M1406.941,560.66v-17.025h1.584v6.816c.584-.584,1.259-1.087,2.026-1.51s1.634-.635,2.601-.635c1.197,0,2.098,.314,2.7,.943s.904,1.513,.904,2.65v8.76h-1.583v-8.468c0-.854-.195-1.488-.584-1.903-.39-.416-1-.623-1.831-.623-.778,0-1.507,.187-2.185,.561-.678,.375-1.36,.892-2.049,1.551v8.883h-1.584Z"/><path d="M1419.609,554.607c0-1.012,.146-1.908,.438-2.69s.687-1.441,1.184-1.977,1.081-.941,1.75-1.218c.67-.277,1.378-.416,2.126-.416,.734,0,1.436,.139,2.103,.416,.667,.276,1.25,.683,1.748,1.218s.894,1.194,1.186,1.977c.293,.782,.438,1.679,.438,2.69,0,1.018-.146,1.916-.438,2.695-.292,.778-.688,1.438-1.186,1.977s-1.081,.946-1.748,1.224-1.368,.415-2.103,.415-1.435-.138-2.104-.415-1.257-.685-1.762-1.224-.902-1.198-1.194-1.977c-.292-.779-.438-1.678-.438-2.695Zm1.583-.023c0,.674,.081,1.311,.242,1.91,.161,.599,.407,1.124,.736,1.577,.33,.453,.741,.814,1.231,1.084,.491,.27,1.06,.404,1.704,.404,.615,0,1.16-.124,1.637-.37,.476-.248,.883-.59,1.22-1.028,.338-.438,.595-.958,.771-1.561,.177-.603,.265-1.274,.265-2.017,0-.658-.084-1.285-.253-1.881-.169-.595-.414-1.115-.736-1.561-.323-.445-.726-.803-1.209-1.072-.484-.27-1.049-.404-1.693-.404-.614,0-1.164,.123-1.647,.37s-.895,.588-1.231,1.022c-.338,.434-.594,.954-.771,1.561-.176,.606-.265,1.262-.265,1.965Z"/><path d="M1433.467,557.302v-8.76h1.583v8.479c0,.861,.191,1.499,.573,1.915,.382,.415,.996,.623,1.842,.623,.778,0,1.503-.192,2.173-.578s1.35-.9,2.039-1.544v-8.895h1.583v12.117h-1.583v-1.909c-.584,.584-1.26,1.091-2.027,1.521s-1.627,.646-2.578,.646c-1.213,0-2.116-.317-2.712-.954-.595-.637-.893-1.523-.893-2.661Z"/><path d="M1446.09,558.739l1.011-.922c.464,.539,.998,.967,1.601,1.281s1.327,.472,2.173,.472c1.041,0,1.827-.182,2.358-.546s.797-.892,.797-1.582c0-.66-.262-1.16-.785-1.498-.524-.338-1.374-.646-2.55-.923-.672-.21-1.278-.398-1.818-.566s-.985-.387-1.337-.656c-.353-.27-.616-.587-.792-.954-.176-.366-.265-.819-.265-1.357,0-.428,.092-.834,.275-1.22s.451-.725,.803-1.017c.353-.292,.781-.522,1.286-.691,.506-.169,1.088-.253,1.747-.253,1.048,0,1.924,.157,2.627,.472,.704,.314,1.326,.742,1.865,1.281l-.898,1.057c-.457-.457-.978-.821-1.562-1.091s-1.243-.404-1.977-.404c-.479,0-.884,.05-1.213,.148-.329,.1-.597,.232-.803,.398s-.359,.354-.461,.564c-.101,.21-.151,.43-.151,.658,0,.575,.228,1.013,.684,1.312,.455,.299,1.214,.569,2.275,.812,.744,.228,1.405,.429,1.985,.605,.579,.177,1.063,.415,1.452,.714,.389,.3,.678,.652,.867,1.059,.188,.407,.283,.917,.283,1.53,0,.554-.12,1.044-.359,1.474s-.565,.794-.977,1.092c-.412,.299-.906,.523-1.482,.673-.577,.148-1.21,.224-1.898,.224-1.086,0-2.034-.201-2.847-.604s-1.451-.916-1.915-1.542Z"/><path d="M1457.68,554.584c0-1.07,.157-2,.472-2.79s.727-1.441,1.235-1.954,1.076-.896,1.701-1.151,1.26-.382,1.903-.382c.712,0,1.369,.135,1.972,.404s1.123,.668,1.561,1.196c.438,.527,.784,1.187,1.039,1.977s.382,1.697,.382,2.724v.303h-8.682c0,.752,.104,1.418,.31,1.997,.206,.58,.48,1.068,.825,1.468,.345,.398,.747,.703,1.207,.914,.461,.21,.953,.315,1.477,.315,.906,0,1.646-.189,2.219-.569,.572-.38,1.091-.932,1.555-1.653l.988,.789c-.539,.85-1.195,1.52-1.971,2.011-.774,.491-1.738,.736-2.892,.736-.704,0-1.378-.135-2.021-.404s-1.207-.674-1.688-1.213c-.481-.539-.867-1.197-1.157-1.977-.29-.778-.435-1.691-.435-2.74Zm1.606-.943h7.108c-.053-.564-.155-1.093-.309-1.586s-.371-.923-.651-1.288c-.281-.365-.629-.647-1.045-.847-.415-.199-.893-.299-1.432-.299-.441,0-.865,.081-1.27,.242-.404,.162-.772,.408-1.105,.74-.333,.331-.614,.747-.843,1.248-.229,.5-.38,1.097-.454,1.789Z"/></g><g><path d="M1672.648,560.66l6.02-17.093h1.774l6.031,17.093h-1.707l-1.82-5.244h-6.895l-1.82,5.244h-1.583Zm3.908-6.693h5.885l-2.92-8.468h-.045l-2.92,8.468Z"/><path d="M1689.134,560.66v-12.117h1.584v1.908c.584-.584,1.259-1.087,2.026-1.51s1.634-.635,2.601-.635c1.197,0,2.098,.314,2.7,.943s.904,1.513,.904,2.65v8.76h-1.583v-8.468c0-.854-.195-1.488-.584-1.903-.39-.416-1-.623-1.831-.623-.778,0-1.507,.187-2.185,.561-.678,.375-1.36,.892-2.049,1.551v8.883h-1.584Z"/><path d="M1701.757,557.822c0-.598,.139-1.153,.415-1.665,.277-.512,.738-.983,1.382-1.413s1.488-.812,2.532-1.149c1.045-.336,2.338-.62,3.881-.853v-.622c0-.844-.21-1.472-.628-1.883-.419-.411-1.028-.616-1.828-.616-.965,0-1.799,.181-2.502,.543-.703,.361-1.376,.821-2.02,1.38l-.859-.996c.734-.669,1.539-1.21,2.415-1.622,.876-.413,1.914-.619,3.111-.619,1.365,0,2.355,.341,2.971,1.021,.615,.681,.923,1.627,.923,2.839v5.499c0,.736,.026,1.342,.079,1.818,.052,.477,.138,.869,.258,1.177h-1.638c-.075-.264-.142-.529-.198-.796-.057-.268-.084-.582-.084-.943-.703,.646-1.445,1.133-2.226,1.456-.781,.323-1.632,.485-2.551,.485-1.089,0-1.933-.269-2.533-.805-.601-.537-.9-1.282-.9-2.235Zm1.583-.202c0,.643,.194,1.125,.583,1.446s.928,.482,1.615,.482c.859,0,1.655-.169,2.388-.505s1.413-.804,2.041-1.401v-3.766c-1.301,.217-2.376,.458-3.224,.723-.849,.266-1.525,.555-2.029,.869-.505,.313-.859,.65-1.065,1.009-.205,.358-.309,.739-.309,1.143Z"/><path d="M1715.211,560.66v-17.025h1.584v17.025h-1.584Z"/><path d="M1719.018,565.074l.359-1.314c.173,.053,.397,.098,.674,.135,.277,.037,.614,.057,1.012,.057,.658,0,1.171-.15,1.538-.45s.682-.772,.943-1.417l.505-1.338-4.693-12.203h1.707l3.773,10.245h.045l3.75-10.245h1.651l-5.222,13.521c-.195,.539-.408,1.01-.641,1.414s-.506,.742-.82,1.012-.677,.473-1.089,.611-.909,.208-1.493,.208c-.465,0-.854-.022-1.168-.066-.314-.045-.592-.102-.832-.169Z"/><path d="M1731.452,549.901v-1.358h2.122v-4.347h1.583v4.347h3.145v1.358h-3.145v7.612c0,.645,.132,1.137,.394,1.479,.262,.341,.768,.512,1.517,.512h.679c.221,0,.418-.026,.59-.079v1.258c-.188,.03-.427,.06-.719,.09s-.576,.045-.854,.045c-1.16,0-1.982-.234-2.465-.702-.483-.468-.725-1.229-.725-2.285v-7.929h-2.122Z"/><path d="M1741.233,545.734v-1.707h1.685v1.707h-1.685Zm.045,14.926v-12.117h1.584v12.117h-1.584Z"/><path d="M1745.972,554.607c0-1.086,.152-2.023,.457-2.813s.709-1.445,1.213-1.966,1.083-.904,1.738-1.15c.655-.248,1.319-.371,1.993-.371,.645,0,1.215,.088,1.713,.264s.931,.418,1.297,.725c.367,.307,.686,.661,.955,1.062s.494,.821,.674,1.263l-1.348,.596c-.345-.823-.773-1.454-1.286-1.893-.513-.438-1.196-.656-2.05-.656-.449,0-.899,.084-1.353,.252-.453,.169-.859,.449-1.219,.843-.359,.393-.649,.902-.87,1.527s-.332,1.391-.332,2.296c0,.802,.096,1.509,.287,2.123,.19,.614,.451,1.131,.78,1.55s.721,.741,1.174,.966,.945,.337,1.477,.337c.846,0,1.529-.204,2.05-.612s.997-1.064,1.432-1.971l1.28,.551c-.239,.509-.509,.975-.809,1.397s-.646,.78-1.039,1.073c-.393,.291-.835,.518-1.325,.679s-1.042,.241-1.656,.241c-.688,0-1.352-.138-1.988-.415-.636-.277-1.194-.685-1.676-1.224s-.863-1.198-1.146-1.977c-.282-.779-.424-1.678-.424-2.695Z"/><path d="M1757.82,558.739l1.011-.922c.464,.539,.998,.967,1.601,1.281s1.327,.472,2.173,.472c1.041,0,1.827-.182,2.358-.546s.797-.892,.797-1.582c0-.66-.262-1.16-.785-1.498-.524-.338-1.374-.646-2.55-.923-.672-.21-1.278-.398-1.818-.566s-.985-.387-1.337-.656c-.353-.27-.616-.587-.792-.954-.176-.366-.265-.819-.265-1.357,0-.428,.092-.834,.275-1.22s.451-.725,.803-1.017c.353-.292,.781-.522,1.286-.691,.506-.169,1.088-.253,1.747-.253,1.048,0,1.924,.157,2.627,.472,.704,.314,1.326,.742,1.865,1.281l-.898,1.057c-.457-.457-.978-.821-1.562-1.091s-1.243-.404-1.977-.404c-.479,0-.884,.05-1.213,.148-.329,.1-.597,.232-.803,.398s-.359,.354-.461,.564c-.101,.21-.151,.43-.151,.658,0,.575,.228,1.013,.684,1.312,.455,.299,1.214,.569,2.275,.812,.744,.228,1.405,.429,1.985,.605,.579,.177,1.063,.415,1.452,.714,.389,.3,.678,.652,.867,1.059,.188,.407,.283,.917,.283,1.53,0,.554-.12,1.044-.359,1.474s-.565,.794-.977,1.092c-.412,.299-.906,.523-1.482,.673-.577,.148-1.21,.224-1.898,.224-1.086,0-2.034-.201-2.847-.604s-1.451-.916-1.915-1.542Z"/></g><path class="d" d="M1260.577,261.168v37.631c0,17.795,53.165,32.221,118.746,32.221s118.746-14.426,118.746-32.221v-37.631"/><ellipse class="d" cx="1379.323" cy="261.168" rx="118.746" ry="32.221"/><path class="d" d="M990.739,330.022v22.916c0,10.837,32.375,19.622,72.312,19.622s72.312-8.785,72.312-19.622v-22.916"/><ellipse class="d" cx="1063.051" cy="330.022" rx="72.312" ry="19.622"/><path class="d" d="M1260.577,318.66v37.631c0,17.795,53.165,32.221,118.746,32.221s118.746-14.426,118.746-32.221v-37.631"/><path class="d" d="M1492.317,308.724c3.734,3.129,5.752,6.468,5.752,9.935,0,17.795-53.165,32.221-118.746,32.221s-118.746-14.426-118.746-32.221c0-3.337,1.869-6.555,5.339-9.582"/><path class="d" d="M1260.577,376.152v37.631c0,17.795,53.165,32.221,118.746,32.221s118.746-14.426,118.746-32.221v-37.631"/><path class="d" d="M1492.317,366.216c3.734,3.129,5.752,6.468,5.752,9.935,0,17.795-53.165,32.221-118.746,32.221s-118.746-14.426-118.746-32.221c0-3.337,1.869-6.555,5.339-9.582"/><path class="d" d="M160.74,371.977v49.72c0,7.522,22.471,13.619,50.191,13.619s50.191-6.098,50.191-13.619v-49.72"/><ellipse class="d" cx="210.932" cy="371.977" rx="50.191" ry="13.619"/><path class="d" d="M160.74,283.348v49.72c0,7.522,22.471,13.619,50.191,13.619s50.191-6.098,50.191-13.619v-49.72"/><ellipse class="d" cx="210.932" cy="283.348" rx="50.191" ry="13.619"/><path class="d" d="M160.741,194.574v49.72c0,7.522,22.471,13.619,50.191,13.619s50.191-6.098,50.191-13.619v-49.72"/><ellipse class="d" cx="210.932" cy="194.574" rx="50.191" ry="13.619"/><line class="d" x1="333.804" y1="310.135" x2="379.067" y2="310.135"/><polyline class="d" points="370.523 301.591 379.067 310.135 370.523 318.68"/><line class="d" x1="619.818" y1="310.135" x2="665.081" y2="310.135"/><polyline class="d" points="656.537 301.591 665.081 310.135 656.537 318.68"/><line class="d" x1="911.237" y1="310.135" x2="956.5" y2="310.135"/><polyline class="d" points="947.956 301.591 956.5 310.135 947.956 318.68"/><line class="d" x1="1175.338" y1="310.135" x2="1220.602" y2="310.135"/><polyline class="d" points="1212.057 301.591 1220.602 310.135 1212.057 318.68"/><line class="d" x1="1566.576" y1="310.135" x2="1611.839" y2="310.135"/><polyline class="d" points="1603.295 301.591 1611.839 310.135 1603.295 318.68"/><circle class="i" cx="498.147" cy="410.042" r="11.591"/><circle class="i" cx="513.911" cy="382.702" r="11.591"/><circle class="i" cx="572.998" cy="350.791" r="11.591"/><circle class="h" cx="498.147" cy="325.884" r="11.591"/><circle class="h" cx="513.911" cy="298.545" r="11.591"/><circle class="h" cx="572.998" cy="266.633" r="11.591"/><circle class="g" cx="498.147" cy="237.818" r="11.591"/><circle class="g" cx="513.911" cy="210.478" r="11.591"/><circle class="g" cx="572.998" cy="178.567" r="11.591"/><path class="d" d="M449.235,371.977v49.72c0,7.522,22.471,13.619,50.191,13.619s50.191-6.098,50.191-13.619v-49.72"/><ellipse class="d" cx="499.426" cy="371.977" rx="50.191" ry="13.619"/><path class="d" d="M449.235,284.596v49.72c0,7.522,22.471,13.619,50.191,13.619s50.191-6.098,50.191-13.619v-49.72"/><ellipse class="d" cx="499.426" cy="284.596" rx="50.191" ry="13.619"/><path class="d" d="M449.235,197.215v49.72c0,7.522,22.471,13.619,50.191,13.619s50.191-6.098,50.191-13.619v-49.72"/><ellipse class="d" cx="499.426" cy="197.215" rx="50.191" ry="13.619"/><ellipse class="i" cx="790.45" cy="386.847" rx="71.017" ry="11.591"/><ellipse class="i" cx="790.45" cy="415.327" rx="71.017" ry="11.591"/><ellipse class="h" cx="790.45" cy="329.889" rx="71.017" ry="11.591"/><ellipse class="i" cx="790.45" cy="358.368" rx="71.017" ry="11.591"/><ellipse class="h" cx="790.45" cy="272.93" rx="71.017" ry="11.591"/><ellipse class="h" cx="790.45" cy="301.41" rx="71.017" ry="11.591"/><ellipse class="g" cx="790.45" cy="215.972" rx="71.017" ry="11.591"/><ellipse class="g" cx="790.45" cy="244.451" rx="71.017" ry="11.591"/><ellipse class="g" cx="790.45" cy="187.493" rx="71.017" ry="11.591"/><ellipse class="h" cx="1063.051" cy="192.647" rx="45.707" ry="7.46"/><ellipse class="g" cx="1063.051" cy="210.976" rx="45.707" ry="7.46"/><ellipse class="i" cx="1063.051" cy="174.318" rx="45.707" ry="7.46"/><path class="g" d="M1744.838,376.479l-5.601,5.598c-6.014,6.012-15.807,6.022-21.83,.022l-1.378-1.374,.004-.003c-.6-.6-1.324-1.325-2.015-2.017l-1.122-1.126,18.348-18.348c2.92-2.939,6.812-4.561,10.957-4.561h9.696v-70.618c0-3.69-2.991-6.681-6.681-6.681h-49.666c-3.69,0-6.681,2.991-6.681,6.681v100.009c0,3.69,2.991,6.681,6.681,6.681h49.666c3.69,0,6.681-2.991,6.681-6.681v-7.582h-7.059Z"/><path class="d" d="M1680.346,408.513v10.854c0,5.218,3.8,9.448,8.488,9.448h63.097c4.688,0,8.488-4.23,8.488-9.448v-5.694"/><path class="c" d="M1751.773,351.037v-67.174c0-3.696-2.979-6.693-6.655-6.693h-49.471c-3.675,0-6.655,2.997-6.655,6.693v68.818"/><path class="c" d="M1688.992,379.476v4.573c0,3.696,2.979,6.693,6.655,6.693h49.471c3.675,0,6.655-2.997,6.655-6.693v-9.454"/><path class="d" d="M1673.982,345.599l-11.947-7.36c-4.262-2.674-5.562-8.349-2.889-12.611h0c2.674-4.262,8.349-5.562,12.611-2.889l8.588,5.387"/><path class="d" d="M1687.095,366.121c2.9,1.232,4.946,4.113,4.946,7.448h0c0,4.447-3.639,8.086-8.086,8.086h-4.821c-4.447,0-8.086-3.639-8.086-8.086h0c0-3.211,1.897-6.001,4.626-7.304l.186-.415c-2.828-1.263-4.812-4.106-4.812-7.389h0c0-4.447,3.639-8.086,8.086-8.086h4.821c4.447,0,8.086,3.639,8.086,8.086h0c0,3.336-2.047,6.216-4.946,7.448v.212Z"/><circle class="g" cx="1721.627" cy="413.299" r="7.082"/><rect class="d" x="1671.831" y="388.626" width="18.643" height="14.888" rx="5.479" ry="5.479"/><circle class="d" cx="1720.144" cy="411.8" r="8.29"/><path class="d" d="M1794.884,384.697l-13.011-22.861c-4.256-7.478-12.52-11.878-21.069-10.912-.128,.014-.256,.03-.385,.046v-73.032c0-5.218-3.8-9.448-8.488-9.448h-63.097c-4.688,0-8.488,4.23-8.488,9.448v67.662"/><path class="d" d="M1756.902,350.791h-16.359c-.852,0-1.702,.079-2.54,.237h0c-2.667,.503-5.126,1.785-7.064,3.685l-20.37,19.972s6.031,10.718,17.864,9.378c0,0,6.362,1.005,14.959-10.383h13.509v23.445s-.445,13.844,16.412,15.295"/><line class="e" x1="1063.051" y1="231.185" x2="1063.051" y2="288"/><polyline class="e" points="1076.972 276.002 1063.051 289.923 1049.13 276.002"/></g></svg>